<?xml version="1.0" encoding="iso-8859-1"?>
<!-- Generator: Adobe Illustrator 19.0.0, SVG Export Plug-In . SVG Version: 6.00 Build 0)  -->
<svg version="1.1" id="Layer_1" xmlns="http://www.w3.org/2000/svg" xmlns:xlink="http://www.w3.org/1999/xlink" x="0px" y="0px" fill="#f30067"
	 viewBox="0 0 512 512" style="enable-background:new 0 0 512 512;" xml:space="preserve">
<g>
	<g>
		<path d="M256,0C114.84,0,0,114.842,0,256s114.84,256,256,256s256-114.842,256-256S397.16,0,256,0z M51.04,280.774
			c-0.974-8.124-1.491-16.391-1.491-24.774s0.517-16.65,1.491-24.774H256v49.548H51.04z M353.942,437.701
			c-29.162-15.791-62.513-24.797-97.942-24.797c-35.427,0-68.778,9.006-97.941,24.797c-15.897-8.602-30.538-19.235-43.588-31.539
			c40.569-27.024,89.235-42.806,141.528-42.806s100.96,15.783,141.525,42.806C384.479,418.466,369.839,429.097,353.942,437.701z
			 M305.548,280.774v-49.548h49.548v49.548H305.548z M256,148.645c-52.295,0-100.961-15.783-141.527-42.806
			c13.038-12.295,27.668-22.919,43.548-31.519C187.19,90.114,220.565,99.097,256,99.097c35.429,0,68.776-9.008,97.939-24.799
			c15.897,8.603,30.54,19.235,43.591,31.543C356.961,132.864,308.293,148.645,256,148.645z M404.645,280.774v-49.548h56.315
			c0.976,8.124,1.491,16.391,1.491,24.774s-0.517,16.65-1.491,24.774H404.645z"/>
	</g>
</g>
<g>
</g>
<g>
</g>
<g>
</g>
<g>
</g>
<g>
</g>
<g>
</g>
<g>
</g>
<g>
</g>
<g>
</g>
<g>
</g>
<g>
</g>
<g>
</g>
<g>
</g>
<g>
</g>
<g>
</g>
</svg>
